<svg width="1025" height="204" viewBox="0 0 1025 204" fill="none" xmlns="http://www.w3.org/2000/svg">
<path d="M293.649 74.7848H274.405V110.864C274.405 120.179 270.66 127.395 261.748 127.395C252.837 127.395 249.479 120.311 249.479 110.995V74.7848H230.235V111.389C230.235 128.445 235.272 143.533 253.87 143.533C261.877 143.533 268.852 140.777 274.405 132.906V142.089H293.649V74.7848Z" fill="#2D2E2E"/>
<path d="M310.343 142.089H329.586V106.01C329.586 96.6949 333.332 89.479 342.243 89.479C351.155 89.479 354.513 96.5637 354.513 105.879V142.089H373.756V105.485C373.756 88.4294 368.719 73.3416 350.121 73.3416C342.114 73.3416 335.14 76.0968 329.586 83.9687V74.7848H310.343V142.089Z" fill="#2D2E2E"/>
<path d="M384.383 126.346C388.903 140.384 402.335 143.533 412.151 143.533C426.745 143.533 439.273 136.448 439.273 122.672C439.273 118.211 437.852 107.847 422.225 103.255L412.28 99.3188C408.922 98.0068 406.081 96.4325 406.081 93.5461C406.081 90.135 409.826 88.0358 413.442 88.0358C416.413 88.0358 421.191 89.0854 422.87 94.4645L437.723 87.511C431.524 75.4408 421.45 73.3416 413.83 73.3416C399.623 73.3416 387.87 80.4263 387.87 93.9397C387.87 96.9573 388.645 107.584 404.402 113.226L416.025 118.211C419.642 119.523 420.933 121.098 420.933 123.328C420.933 126.739 416.542 128.445 412.28 128.445C406.985 128.445 400.269 126.083 398.331 118.343L384.383 126.346Z" fill="#2D2E2E"/>
<path d="M483.888 89.2166C490.345 89.2166 498.998 92.4965 500.29 101.156H467.098C469.423 92.1029 477.688 89.2166 483.888 89.2166ZM505.327 119.523C500.677 123.984 493.832 127.526 486.987 127.526C474.718 127.526 467.098 121.36 466.71 112.963H520.05C520.05 86.199 502.486 73.3416 484.146 73.3416C462.836 73.3416 447.596 88.9542 447.596 108.765C447.596 127.92 461.028 143.533 485.567 143.533C494.478 143.533 507.006 140.777 516.434 130.282L505.327 119.523Z" fill="#2D2E2E"/>
<path d="M550.816 142.089V47.2332H531.572V142.089H550.816Z" fill="#2D2E2E"/>
<path d="M591.66 67.7001C591.66 64.8137 592.822 61.4026 596.568 61.4026C600.313 61.4026 601.605 64.1578 601.605 67.3065C601.605 67.8313 601.476 69.1433 601.088 69.5369H615.941C616.328 68.7497 616.586 66.5193 616.586 65.8633C616.586 55.8923 611.033 45.79 595.405 45.79C583.782 45.79 572.416 51.3004 572.416 70.8489V75.3096H563.117V90.135H572.416V142.089H591.66V90.135H606.513V75.3096H591.66V67.7001Z" fill="#2D2E2E"/>
<path d="M94.3496 122.572L94.3253 122.572H94.3011C90.8339 122.572 88.6757 121.242 87.2914 119.162C85.8222 116.954 85.0789 113.67 85.0789 109.598V74.375H63.4136V109.958C63.4136 117.907 64.5749 125.727 68.1509 131.617C71.8289 137.676 77.9183 141.455 87.0837 141.455C94.8673 141.455 103.198 138.761 108.769 130.864L108.796 130.826L108.82 130.787C111.505 126.593 113.677 121.962 115.64 117.455C116.257 116.038 116.85 114.642 117.431 113.273C118.722 110.234 119.954 107.333 121.263 104.643C125.115 96.7319 129.023 92.0066 135.121 92.0066C138.588 92.0066 140.746 93.3363 142.13 95.4165C143.599 97.6243 144.343 100.908 144.343 104.981V140.203H166.008V104.62C166.008 96.6714 164.847 88.8519 161.271 82.9611C157.593 76.9023 151.503 73.123 142.338 73.123C134.56 73.123 126.236 75.8139 120.665 83.6976C117.68 87.7577 115.42 92.364 113.473 96.89C112.591 98.9409 111.763 100.998 110.964 102.987L110.711 103.615C109.828 105.809 108.976 107.908 108.094 109.877C106.316 113.846 104.502 117.085 102.301 119.306C100.176 121.449 97.6848 122.654 94.3496 122.572Z" fill="#2D2E2E"/>
<path d="M695.121 141.346C689.685 141.346 684.82 140.074 680.525 137.532C676.229 134.902 672.81 131.045 670.268 125.961C667.814 120.876 666.586 114.609 666.586 107.157C666.586 99.7059 667.858 93.4381 670.4 88.3536C672.942 83.2692 676.361 79.4559 680.656 76.9137C685.039 74.2838 689.905 72.9689 695.252 72.9689C700.249 72.9689 704.369 73.9332 707.612 75.8618C710.856 77.7027 713.267 80.0696 714.845 82.9624V45.0923H728.783V139.768H716.817L715.633 130.169H714.845C713.091 133.587 710.593 136.305 707.349 138.321C704.194 140.337 700.117 141.346 695.121 141.346ZM698.013 128.065C703.01 128.065 707.13 126.311 710.374 122.805C713.705 119.298 715.371 114.083 715.371 107.157C715.371 100.144 713.705 94.9283 710.374 91.5095C707.13 88.003 703.01 86.2498 698.013 86.2498C693.017 86.2498 688.853 88.003 685.521 91.5095C682.278 95.016 680.656 100.276 680.656 107.289C680.656 114.214 682.278 119.43 685.521 122.936C688.853 126.355 693.017 128.065 698.013 128.065Z" fill="#2D2E2E"/>
<path d="M777.516 141.346C771.292 141.346 765.725 139.943 760.816 137.138C755.907 134.333 752.05 130.388 749.244 125.303C746.439 120.131 745.037 114.083 745.037 107.157C745.037 100.232 746.439 94.227 749.244 89.1426C752.05 83.9705 755.907 79.9819 760.816 77.1767C765.725 74.3715 771.335 72.9689 777.647 72.9689C783.959 72.9689 789.525 74.3715 794.347 77.1767C799.256 79.9819 803.069 83.9705 805.787 89.1426C808.592 94.227 809.994 100.232 809.994 107.157C809.994 114.083 808.592 120.131 805.787 125.303C802.981 130.388 799.124 134.333 794.215 137.138C789.394 139.943 783.827 141.346 777.516 141.346ZM777.516 128.065C780.847 128.065 783.915 127.32 786.72 125.829C789.525 124.339 791.761 122.06 793.426 118.992C795.18 115.836 796.056 111.891 796.056 107.157C796.056 102.336 795.18 98.391 793.426 95.3228C791.761 92.2546 789.525 89.9754 786.72 88.4851C784.003 86.9949 780.978 86.2498 777.647 86.2498C774.316 86.2498 771.248 86.9949 768.443 88.4851C765.637 89.9754 763.358 92.2546 761.605 95.3228C759.939 98.391 759.106 102.336 759.106 107.157C759.106 114.346 760.904 119.649 764.498 123.068C768.18 126.399 772.519 128.065 777.516 128.065Z" fill="#2D2E2E"/>
<path d="M857.281 141.346C851.232 141.346 845.797 139.943 840.976 137.138C836.242 134.333 832.516 130.388 829.799 125.303C827.081 120.131 825.722 114.083 825.722 107.157C825.722 100.232 827.081 94.227 829.799 89.1426C832.604 84.0582 836.373 80.1134 841.107 77.3082C845.841 74.4153 851.232 72.9689 857.281 72.9689C865.609 72.9689 872.315 75.0728 877.399 79.2806C882.571 83.4007 885.859 89.0988 887.261 96.3747H872.665C871.789 93.2189 869.992 90.7205 867.274 88.8796C864.644 87.0387 861.269 86.1183 857.149 86.1183C854.169 86.1183 851.32 86.9072 848.602 88.4851C845.972 90.0631 843.825 92.4299 842.159 95.5858C840.581 98.654 839.792 102.511 839.792 107.157C839.792 111.716 840.581 115.573 842.159 118.729C843.825 121.884 845.972 124.295 848.602 125.961C851.32 127.539 854.169 128.328 857.149 128.328C861.357 128.328 864.732 127.407 867.274 125.566C869.816 123.725 871.614 121.183 872.665 117.94H887.261C885.508 125.128 882.089 130.826 877.005 135.034C871.92 139.242 865.346 141.346 857.281 141.346Z" fill="#2D2E2E"/>
<path d="M935.731 141.346C927.14 141.346 920.302 139.329 915.218 135.297C910.134 131.264 907.241 125.917 906.539 119.255H920.872C921.398 122.323 922.932 124.821 925.474 126.75C928.104 128.678 931.567 129.643 935.862 129.643C939.983 129.643 943.138 128.81 945.33 127.144C947.609 125.391 948.749 123.375 948.749 121.096C948.749 117.764 947.39 115.485 944.673 114.258C942.043 113.031 938.142 112.11 932.97 111.496C928.499 110.971 924.423 109.962 920.741 108.472C917.147 106.894 914.298 104.79 912.194 102.16C910.09 99.4429 909.038 96.0679 909.038 92.0355C909.038 86.3374 911.273 81.7351 915.744 78.2286C920.215 74.7222 926.439 72.9689 934.416 72.9689C942.393 72.9689 948.574 74.766 952.957 78.3601C957.34 81.9543 959.882 86.8634 960.583 93.0874H947.171C946.82 90.4575 945.461 88.3975 943.095 86.9072C940.728 85.3293 937.791 84.5403 934.285 84.5403C930.69 84.5403 927.841 85.2416 925.737 86.6442C923.634 87.9592 922.582 89.7124 922.582 91.904C922.582 96.6377 927.666 99.5306 937.835 100.583C942.656 101.109 946.952 102.029 950.721 103.344C954.491 104.571 957.471 106.544 959.663 109.261C961.854 111.891 962.95 115.617 962.95 120.438C963.038 124.383 961.898 127.933 959.531 131.089C957.252 134.245 954.052 136.743 949.932 138.584C945.9 140.425 941.166 141.346 935.731 141.346Z" fill="#2D2E2E"/>
</svg>
