<svg width="480" height="120" viewBox="0 0 480 120" fill="none" xmlns="http://www.w3.org/2000/svg">
<path fill-rule="evenodd" clip-rule="evenodd" d="M52.0119 19.5079C56.197 21.9242 57.6309 27.2756 55.2146 31.4607L41.3726 55.4359C36.144 64.4919 39.2469 76.0719 48.3029 81.3004C57.359 86.529 68.939 83.4261 74.1675 74.3701L88.0096 50.3948C90.4259 46.2098 95.7773 44.7759 99.9623 47.1921C104.147 49.6084 105.581 54.9598 103.165 59.1448L89.323 83.1201C79.262 100.546 56.9792 106.517 39.5529 96.4559C22.1267 86.3949 16.1561 64.1121 26.2171 46.6859L40.0592 22.7107C42.4754 18.5256 47.8269 17.0917 52.0119 19.5079Z" fill="#2C2C2C"/>
<path fill-rule="evenodd" clip-rule="evenodd" d="M53.395 72.481C57.58 74.8972 62.9315 73.4633 65.3477 69.2782L79.1898 45.303C84.4183 36.2469 95.9983 33.1441 105.054 38.3726C114.11 43.6012 117.213 55.1811 111.985 64.2372L98.1427 88.2124C95.7264 92.3975 97.1603 97.7489 101.345 100.165C105.53 102.581 110.882 101.147 113.298 96.9624L127.14 72.9872C137.201 55.561 131.231 33.2782 113.804 23.2172C96.3782 13.1562 74.0954 19.1268 64.0344 36.553L50.1923 60.5282C47.776 64.7133 49.2099 70.0647 53.395 72.481Z" fill="#2C2C2C"/>
<path d="M176.417 92.0087C183.521 92.0087 188.417 88.9366 191.009 83.9446V85.7687C191.009 89.1287 192.833 90.9527 196.193 90.9527H203.105C206.465 90.9527 208.289 89.1287 208.289 85.7687V46.2167C208.289 42.8566 206.465 41.0326 203.105 41.0326H196.193C192.833 41.0326 191.009 42.8566 191.009 46.2167V67.4326C191.009 74.0566 187.937 78.3766 182.849 78.3766C177.761 78.3766 175.937 73.9606 175.937 68.5846V46.2167C175.937 42.8566 174.113 41.0326 170.753 41.0326H163.841C160.481 41.0326 158.657 42.8566 158.657 46.2167V70.0247C158.657 80.0087 162.017 92.0087 176.417 92.0087Z" fill="#2C2C2C"/>
<path d="M224.138 90.9527H231.05C234.41 90.9527 236.234 89.1287 236.234 85.7687V64.5527C236.234 57.9286 239.306 53.7047 244.394 53.7047C249.482 53.7047 251.21 58.0246 251.21 63.4007V85.7687C251.21 89.1287 253.034 90.9527 256.394 90.9527H263.306C266.666 90.9527 268.49 89.1287 268.49 85.7687V61.9606C268.49 51.9766 265.13 39.9766 250.73 39.9766C243.626 39.9766 238.826 43.0486 236.234 48.1366V46.2167C236.234 42.8566 234.41 41.0326 231.05 41.0326H224.138C220.778 41.0326 218.954 42.8566 218.954 46.2167V85.7687C218.954 89.1287 220.778 90.9527 224.138 90.9527Z" fill="#2C2C2C"/>
<path d="M296.72 92.0087C307.856 92.0087 317.552 86.9206 317.552 76.1686C317.456 69.6406 313.136 64.2647 302.672 60.6167L296.72 58.3127C294.32 57.5447 292.784 56.6806 292.784 54.9526C292.784 53.2246 294.32 51.6887 296.912 51.6887C298.352 51.6887 299.888 52.0726 301.04 53.1286C303.056 54.7606 304.496 55.7206 307.28 54.9526L310.352 54.0887C313.808 53.1287 315.44 50.3447 313.232 47.2726C309.392 41.9926 303.632 39.9766 297.008 39.9766C285.872 39.9766 277.616 46.4087 277.616 56.0087C277.616 66.0887 288.464 69.5446 292.4 70.8886L298.256 73.0006C301.328 74.0566 302.288 75.0166 302.288 76.4566C302.288 78.6646 300.08 79.9127 296.72 79.9127C294.032 79.9127 291.728 79.1447 290.096 77.6087C287.792 75.4007 286.64 73.9607 283.664 74.6327L280.304 75.4007C276.944 76.2646 275.216 78.5686 276.656 81.7366C280.016 88.6486 287.216 92.0087 296.72 92.0087Z" fill="#2C2C2C"/>
<path d="M351.662 92.0087C357.998 92.0087 364.718 90.5687 370.382 86.7287C373.358 84.7127 373.454 81.7367 371.438 79.2407L370.094 77.5126C368.174 75.0166 365.774 74.8246 362.894 76.2646C359.342 78.1846 355.886 78.7607 353.006 78.7607C343.886 78.7607 338.798 73.5767 338.798 69.1607H371.918C375.182 69.1607 377.294 67.9126 377.198 64.9366C376.91 49.0006 365.198 39.9766 350.222 39.9766C332.75 39.9766 322.574 52.3606 322.574 66.1846C322.574 80.4886 333.422 92.0087 351.662 92.0087ZM339.086 60.5207C340.046 54.8567 345.326 52.4566 350.318 52.4566C355.31 52.4566 360.59 54.7607 361.358 60.5207H339.086Z" fill="#2C2C2C"/>
<path d="M389.981 90.9527H396.893C400.253 90.9527 402.077 89.1287 402.077 85.7687V26.7286C402.077 23.3686 400.253 21.5446 396.893 21.5446H389.981C386.621 21.5446 384.797 23.3686 384.797 26.7286V85.7687C384.797 89.1287 386.621 90.9527 389.981 90.9527Z" fill="#2C2C2C"/>
<path d="M421.562 90.9527H428.09C431.45 90.9527 433.274 89.1287 433.274 85.7687V53.7047H440.762C442.394 53.7047 443.45 52.7446 443.45 51.0166V44.6806C443.45 42.9526 442.394 41.9926 440.762 41.9926H432.986V36.9046C432.986 34.3126 434.33 32.6806 436.73 32.6806C438.746 32.6806 440.282 33.9286 440.282 35.4647V35.9446C440.282 36.9046 440.954 37.7686 442.298 37.7686H450.266C451.706 37.7686 452.666 37.0006 452.858 35.4647C452.954 34.9847 452.954 34.5047 452.954 34.0246C452.954 23.9446 443.93 20.4886 435.674 20.4886C427.034 20.4886 416.282 24.1366 416.282 39.1126V41.9926H412.538C410.81 41.9926 409.85 42.9526 409.85 44.6806V51.0166C409.85 52.7446 410.81 53.7047 412.538 53.7047H416.282V85.7687C416.282 89.1287 418.202 90.9527 421.562 90.9527Z" fill="#2C2C2C"/>
</svg>
