<svg width="1025" height="200" viewBox="0 0 1025 200" fill="none" xmlns="http://www.w3.org/2000/svg">
<path d="M293.649 73.6452H274.405V109.175C274.405 118.348 270.66 125.454 261.748 125.454C252.837 125.454 249.479 118.477 249.479 109.304V73.6452H230.235V109.692C230.235 126.488 235.272 141.345 253.87 141.345C261.877 141.345 268.851 138.632 274.405 130.88V139.924H293.649V73.6452Z" fill="#FFFDF9"/>
<path d="M310.343 139.924H329.586V104.395C329.586 95.2214 333.332 88.1155 342.243 88.1155C351.155 88.1155 354.513 95.0922 354.513 104.265V139.924H373.756V103.878C373.756 87.0819 368.719 72.224 350.121 72.224C342.114 72.224 335.14 74.9372 329.586 82.6891V73.6452H310.343V139.924Z" fill="#FFFDF9"/>
<path d="M384.383 124.42C388.903 138.245 402.335 141.345 412.151 141.345C426.745 141.345 439.273 134.369 439.273 120.803C439.273 116.41 437.852 106.203 422.225 101.681L412.28 97.8054C408.922 96.5134 406.081 94.963 406.081 92.1206C406.081 88.7615 409.826 86.6943 413.442 86.6943C416.413 86.6943 421.191 87.7279 422.87 93.025L437.723 86.1775C431.524 74.2912 421.45 72.224 413.83 72.224C399.623 72.224 387.87 79.2008 387.87 92.5082C387.87 95.4798 388.645 105.945 404.402 111.5L416.025 116.41C419.642 117.702 420.933 119.252 420.933 121.449C420.933 124.808 416.542 126.488 412.28 126.488C406.985 126.488 400.269 124.162 398.331 116.539L384.383 124.42Z" fill="#FFFDF9"/>
<path d="M483.888 87.8571C490.345 87.8571 498.998 91.0871 500.29 99.6142H467.098C469.423 90.6995 477.688 87.8571 483.888 87.8571ZM505.327 117.702C500.677 122.095 493.832 125.583 486.987 125.583C474.718 125.583 467.098 119.511 466.71 111.242H520.05C520.05 84.8855 502.486 72.224 484.146 72.224C462.836 72.224 447.596 87.5987 447.596 107.108C447.596 125.971 461.028 141.345 485.567 141.345C494.478 141.345 507.006 138.632 516.434 128.296L505.327 117.702Z" fill="#FFFDF9"/>
<path d="M550.816 139.924V46.5135H531.572V139.924H550.816Z" fill="#FFFDF9"/>
<path d="M591.66 66.6685C591.66 63.8261 592.822 60.4669 596.568 60.4669C600.313 60.4669 601.605 63.1801 601.605 66.2809C601.605 66.7977 601.476 68.0897 601.088 68.4773H615.941C616.328 67.7021 616.586 65.5057 616.586 64.8597C616.586 55.0406 611.033 45.0923 595.405 45.0923C583.782 45.0923 572.416 50.5186 572.416 69.7693V74.162H563.117V88.7615H572.416V139.924H591.66V88.7615H606.512V74.162H591.66V66.6685Z" fill="#FFFDF9"/>
<path d="M94.3496 120.705L94.3253 120.704H94.301C90.8338 120.704 88.6756 119.395 87.2913 117.346C85.8222 115.172 85.0789 111.938 85.0789 107.928V73.2417H63.4136V108.283C63.4136 116.11 64.5749 123.811 68.1508 129.612C71.8289 135.578 77.9182 139.3 87.0836 139.3C94.8672 139.3 103.198 136.646 108.769 128.87L108.795 128.833L108.82 128.794C111.505 124.664 113.677 120.104 115.64 115.666C116.257 114.27 116.85 112.895 117.431 111.547C118.722 108.555 119.954 105.697 121.263 103.049C125.115 95.2579 129.023 90.6046 135.121 90.6046C138.588 90.6046 140.746 91.914 142.13 93.9625C143.599 96.1367 144.343 99.3706 144.343 103.381V138.067H166.008V103.026C166.008 95.1983 164.847 87.4979 161.271 81.697C157.593 75.7304 151.503 72.0088 142.338 72.0088C134.56 72.0088 126.236 74.6587 120.665 82.4222C117.68 86.4205 115.42 90.9565 113.473 95.4136C112.591 97.4332 111.763 99.4591 110.964 101.418L110.711 102.037C109.828 104.196 108.976 106.264 108.094 108.202C106.316 112.112 104.502 115.301 102.301 117.488C100.176 119.598 97.6847 120.785 94.3496 120.705Z" fill="#FFFDF9"/>
<path d="M695.121 141.346C689.685 141.346 684.82 140.074 680.525 137.532C676.229 134.902 672.81 131.045 670.268 125.961C667.814 120.876 666.586 114.609 666.586 107.157C666.586 99.7059 667.858 93.4381 670.4 88.3536C672.942 83.2692 676.361 79.4559 680.656 76.9137C685.039 74.2838 689.905 72.9689 695.252 72.9689C700.249 72.9689 704.369 73.9332 707.612 75.8618C710.856 77.7027 713.267 80.0696 714.845 82.9624V45.0923H728.783V139.768H716.817L715.633 130.169H714.845C713.091 133.587 710.593 136.305 707.349 138.321C704.194 140.337 700.117 141.346 695.121 141.346ZM698.013 128.065C703.01 128.065 707.13 126.311 710.374 122.805C713.705 119.298 715.371 114.083 715.371 107.157C715.371 100.144 713.705 94.9283 710.374 91.5095C707.13 88.003 703.01 86.2498 698.013 86.2498C693.017 86.2498 688.853 88.003 685.521 91.5095C682.278 95.016 680.656 100.276 680.656 107.289C680.656 114.214 682.278 119.43 685.521 122.936C688.853 126.355 693.017 128.065 698.013 128.065Z" fill="#FFFDF9"/>
<path d="M777.516 141.346C771.292 141.346 765.725 139.943 760.816 137.138C755.907 134.333 752.05 130.388 749.244 125.303C746.439 120.131 745.037 114.083 745.037 107.157C745.037 100.232 746.439 94.227 749.244 89.1426C752.05 83.9705 755.907 79.9819 760.816 77.1767C765.725 74.3715 771.335 72.9689 777.647 72.9689C783.959 72.9689 789.525 74.3715 794.347 77.1767C799.256 79.9819 803.069 83.9705 805.787 89.1426C808.592 94.227 809.994 100.232 809.994 107.157C809.994 114.083 808.592 120.131 805.787 125.303C802.981 130.388 799.124 134.333 794.215 137.138C789.394 139.943 783.827 141.346 777.516 141.346ZM777.516 128.065C780.847 128.065 783.915 127.32 786.72 125.829C789.525 124.339 791.761 122.06 793.426 118.992C795.18 115.836 796.056 111.891 796.056 107.157C796.056 102.336 795.18 98.391 793.426 95.3228C791.761 92.2546 789.525 89.9754 786.72 88.4851C784.003 86.9949 780.978 86.2498 777.647 86.2498C774.316 86.2498 771.248 86.9949 768.443 88.4851C765.637 89.9754 763.358 92.2546 761.605 95.3228C759.939 98.391 759.106 102.336 759.106 107.157C759.106 114.346 760.904 119.649 764.498 123.068C768.18 126.399 772.519 128.065 777.516 128.065Z" fill="#FFFDF9"/>
<path d="M857.281 141.346C851.232 141.346 845.797 139.943 840.976 137.138C836.242 134.333 832.516 130.388 829.799 125.303C827.081 120.131 825.722 114.083 825.722 107.157C825.722 100.232 827.081 94.227 829.799 89.1426C832.604 84.0582 836.373 80.1134 841.107 77.3082C845.841 74.4153 851.232 72.9689 857.281 72.9689C865.609 72.9689 872.315 75.0728 877.399 79.2806C882.571 83.4007 885.859 89.0988 887.261 96.3747H872.665C871.789 93.2189 869.992 90.7205 867.274 88.8796C864.644 87.0387 861.269 86.1183 857.149 86.1183C854.169 86.1183 851.32 86.9072 848.602 88.4851C845.972 90.0631 843.825 92.4299 842.159 95.5858C840.581 98.654 839.792 102.511 839.792 107.157C839.792 111.716 840.581 115.573 842.159 118.729C843.825 121.884 845.972 124.295 848.602 125.961C851.32 127.539 854.169 128.328 857.149 128.328C861.357 128.328 864.732 127.407 867.274 125.566C869.816 123.725 871.614 121.183 872.665 117.94H887.261C885.508 125.128 882.089 130.826 877.005 135.034C871.92 139.242 865.346 141.346 857.281 141.346Z" fill="#FFFDF9"/>
<path d="M935.731 141.346C927.14 141.346 920.302 139.329 915.218 135.297C910.134 131.264 907.241 125.917 906.539 119.255H920.872C921.398 122.323 922.932 124.821 925.474 126.75C928.104 128.678 931.567 129.643 935.862 129.643C939.983 129.643 943.138 128.81 945.33 127.144C947.609 125.391 948.749 123.375 948.749 121.096C948.749 117.764 947.39 115.485 944.673 114.258C942.043 113.031 938.142 112.11 932.97 111.496C928.499 110.971 924.423 109.962 920.741 108.472C917.147 106.894 914.298 104.79 912.194 102.16C910.09 99.4429 909.038 96.0679 909.038 92.0355C909.038 86.3374 911.273 81.7351 915.744 78.2286C920.215 74.7222 926.439 72.9689 934.416 72.9689C942.393 72.9689 948.574 74.766 952.957 78.3601C957.34 81.9543 959.882 86.8634 960.583 93.0874H947.171C946.82 90.4575 945.461 88.3975 943.095 86.9072C940.728 85.3293 937.791 84.5403 934.285 84.5403C930.69 84.5403 927.841 85.2416 925.737 86.6442C923.634 87.9592 922.582 89.7124 922.582 91.904C922.582 96.6377 927.666 99.5306 937.835 100.583C942.656 101.109 946.952 102.029 950.721 103.344C954.491 104.571 957.471 106.544 959.663 109.261C961.854 111.891 962.95 115.617 962.95 120.438C963.038 124.383 961.898 127.933 959.531 131.089C957.252 134.245 954.052 136.743 949.932 138.584C945.9 140.425 941.166 141.346 935.731 141.346Z" fill="#FFFDF9"/>
</svg>
