<svg width="681" height="200" viewBox="0 0 681 200" fill="none" xmlns="http://www.w3.org/2000/svg">
<path d="M294.201 73.6452H274.957V109.175C274.957 118.348 271.212 125.454 262.3 125.454C253.389 125.454 250.031 118.477 250.031 109.304V73.6452H230.787V109.692C230.787 126.488 235.824 141.345 254.422 141.345C262.429 141.345 269.404 138.632 274.957 130.88V139.924H294.201V73.6452Z" fill="#2D2E2E"/>
<path d="M310.895 139.924H330.138V104.395C330.138 95.2214 333.884 88.1155 342.795 88.1155C351.707 88.1155 355.065 95.0922 355.065 104.265V139.924H374.308V103.878C374.308 87.0819 369.271 72.224 350.674 72.224C342.666 72.224 335.692 74.9372 330.138 82.6891V73.6452H310.895V139.924Z" fill="#2D2E2E"/>
<path d="M384.935 124.42C389.455 138.245 402.887 141.345 412.703 141.345C427.297 141.345 439.825 134.369 439.825 120.803C439.825 116.41 438.404 106.203 422.777 101.681L412.832 97.8054C409.474 96.5134 406.633 94.963 406.633 92.1206C406.633 88.7615 410.378 86.6943 413.994 86.6943C416.965 86.6943 421.743 87.7279 423.422 93.025L438.275 86.1775C432.076 74.2912 422.002 72.224 414.382 72.224C400.175 72.224 388.422 79.2008 388.422 92.5082C388.422 95.4798 389.197 105.945 404.954 111.5L416.577 116.41C420.194 117.702 421.485 119.252 421.485 121.449C421.485 124.808 417.094 126.488 412.832 126.488C407.537 126.488 400.821 124.162 398.884 116.539L384.935 124.42Z" fill="#2D2E2E"/>
<path d="M484.44 87.8571C490.897 87.8571 499.551 91.0871 500.842 99.6142H467.65C469.975 90.6995 478.24 87.8571 484.44 87.8571ZM505.879 117.702C501.23 122.095 494.384 125.583 487.539 125.583C475.27 125.583 467.65 119.511 467.263 111.242H520.602C520.602 84.8855 503.038 72.224 484.698 72.224C463.388 72.224 448.148 87.5987 448.148 107.108C448.148 125.971 461.58 141.345 486.119 141.345C495.03 141.345 507.558 138.632 516.986 128.296L505.879 117.702Z" fill="#2D2E2E"/>
<path d="M551.368 139.924V46.5135H532.124V139.924H551.368Z" fill="#2D2E2E"/>
<path d="M592.212 66.6685C592.212 63.8261 593.374 60.4669 597.12 60.4669C600.865 60.4669 602.157 63.1801 602.157 66.2809C602.157 66.7977 602.028 68.0897 601.64 68.4773H616.493C616.88 67.7021 617.138 65.5057 617.138 64.8597C617.138 55.0406 611.585 45.0923 595.957 45.0923C584.334 45.0923 572.968 50.5186 572.968 69.7693V74.162H563.669V88.7615H572.968V139.924H592.212V88.7615H607.065V74.162H592.212V66.6685Z" fill="#2D2E2E"/>
<path d="M94.9017 120.705L94.8774 120.704H94.8531C91.386 120.704 89.2277 119.395 87.8435 117.346C86.3743 115.172 85.631 111.938 85.631 107.928V73.2417H63.9657V108.283C63.9657 116.11 65.127 123.811 68.7029 129.612C72.381 135.578 78.4704 139.3 87.6358 139.3C95.4194 139.3 103.75 136.646 109.321 128.87L109.348 128.833L109.372 128.794C112.058 124.664 114.23 120.104 116.192 115.666C116.809 114.27 117.402 112.895 117.983 111.547C119.274 108.555 120.506 105.697 121.815 103.049C125.667 95.2579 129.576 90.6046 135.673 90.6046C139.14 90.6046 141.298 91.914 142.682 93.9625C144.151 96.1367 144.895 99.3706 144.895 103.381V138.067H166.56V103.026C166.56 95.1983 165.399 87.4979 161.823 81.697C158.145 75.7304 152.055 72.0088 142.89 72.0088C135.112 72.0088 126.788 74.6587 121.217 82.4222C118.232 86.4205 115.972 90.9565 114.025 95.4136C113.143 97.4332 112.316 99.4591 111.516 101.418L111.263 102.037C110.38 104.196 109.528 106.264 108.646 108.202C106.868 112.112 105.054 115.301 102.853 117.488C100.728 119.598 98.2368 120.785 94.9017 120.705Z" fill="#2D2E2E"/>
</svg>
