<svg width="680" height="200" viewBox="0 0 680 200" fill="none" xmlns="http://www.w3.org/2000/svg">
<path d="M293.649 73.6452H274.405V109.175C274.405 118.348 270.66 125.454 261.748 125.454C252.837 125.454 249.479 118.477 249.479 109.304V73.6452H230.235V109.692C230.235 126.488 235.272 141.345 253.87 141.345C261.877 141.345 268.852 138.632 274.405 130.88V139.924H293.649V73.6452Z" fill="#FFFDF9"/>
<path d="M310.343 139.924H329.586V104.395C329.586 95.2214 333.332 88.1155 342.243 88.1155C351.155 88.1155 354.513 95.0922 354.513 104.265V139.924H373.756V103.878C373.756 87.0819 368.719 72.224 350.121 72.224C342.114 72.224 335.14 74.9372 329.586 82.6891V73.6452H310.343V139.924Z" fill="#FFFDF9"/>
<path d="M384.383 124.42C388.903 138.245 402.335 141.345 412.151 141.345C426.745 141.345 439.273 134.369 439.273 120.803C439.273 116.41 437.852 106.203 422.225 101.681L412.28 97.8054C408.922 96.5134 406.081 94.963 406.081 92.1206C406.081 88.7615 409.826 86.6943 413.442 86.6943C416.413 86.6943 421.191 87.7279 422.87 93.025L437.723 86.1775C431.524 74.2912 421.45 72.224 413.83 72.224C399.623 72.224 387.87 79.2008 387.87 92.5082C387.87 95.4798 388.645 105.945 404.402 111.5L416.025 116.41C419.642 117.702 420.933 119.252 420.933 121.449C420.933 124.808 416.542 126.488 412.28 126.488C406.985 126.488 400.269 124.162 398.331 116.539L384.383 124.42Z" fill="#FFFDF9"/>
<path d="M483.888 87.8571C490.345 87.8571 498.998 91.0871 500.29 99.6142H467.098C469.423 90.6995 477.688 87.8571 483.888 87.8571ZM505.327 117.702C500.677 122.095 493.832 125.583 486.987 125.583C474.718 125.583 467.098 119.511 466.71 111.242H520.05C520.05 84.8855 502.486 72.224 484.146 72.224C462.836 72.224 447.596 87.5987 447.596 107.108C447.596 125.971 461.028 141.345 485.567 141.345C494.478 141.345 507.006 138.632 516.434 128.296L505.327 117.702Z" fill="#FFFDF9"/>
<path d="M550.816 139.924V46.5135H531.572V139.924H550.816Z" fill="#FFFDF9"/>
<path d="M591.66 66.6685C591.66 63.8261 592.822 60.4669 596.568 60.4669C600.313 60.4669 601.605 63.1801 601.605 66.2809C601.605 66.7977 601.476 68.0897 601.088 68.4773H615.941C616.328 67.7021 616.586 65.5057 616.586 64.8597C616.586 55.0406 611.033 45.0923 595.405 45.0923C583.782 45.0923 572.416 50.5186 572.416 69.7693V74.162H563.117V88.7615H572.416V139.924H591.66V88.7615H606.513V74.162H591.66V66.6685Z" fill="#FFFDF9"/>
<path d="M94.3496 120.705L94.3253 120.704H94.3011C90.8339 120.704 88.6757 119.395 87.2914 117.346C85.8222 115.172 85.0789 111.938 85.0789 107.928V73.2417H63.4136V108.283C63.4136 116.11 64.5749 123.811 68.1509 129.612C71.8289 135.578 77.9183 139.3 87.0837 139.3C94.8673 139.3 103.198 136.646 108.769 128.87L108.796 128.833L108.82 128.794C111.505 124.664 113.677 120.104 115.64 115.666C116.257 114.27 116.85 112.895 117.431 111.547C118.722 108.555 119.954 105.697 121.263 103.049C125.115 95.2579 129.023 90.6046 135.121 90.6046C138.588 90.6046 140.746 91.914 142.13 93.9625C143.599 96.1367 144.343 99.3706 144.343 103.381V138.067H166.008V103.026C166.008 95.1983 164.847 87.4979 161.271 81.697C157.593 75.7304 151.503 72.0088 142.338 72.0088C134.56 72.0088 126.236 74.6587 120.665 82.4222C117.68 86.4205 115.42 90.9565 113.473 95.4136C112.591 97.4332 111.763 99.4591 110.964 101.418L110.711 102.037C109.828 104.196 108.976 106.264 108.094 108.202C106.316 112.112 104.502 115.301 102.301 117.488C100.176 119.598 97.6848 120.785 94.3496 120.705Z" fill="#FFFDF9"/>
</svg>
